<mxfile host="app.diagrams.net" modified="2022-12-16T01:49:24.242Z" agent="5.0 (Windows NT 10.0; Win64; x64) AppleWebKit/537.36 (KHTML, like Gecko) Chrome/108.0.0.0 Safari/537.36" etag="-oao4oaI6AoQoCqkNXIw" version="20.6.2" type="github">
  <diagram id="C5RBs43oDa-KdzZeNtuy" name="Page-1">
    <mxGraphModel dx="1728" dy="1111" grid="1" gridSize="10" guides="1" tooltips="1" connect="1" arrows="1" fold="1" page="1" pageScale="1" pageWidth="827" pageHeight="1169" math="0" shadow="0">
      <root>
        <mxCell id="WIyWlLk6GJQsqaUBKTNV-0" />
        <mxCell id="WIyWlLk6GJQsqaUBKTNV-1" parent="WIyWlLk6GJQsqaUBKTNV-0" />
        <mxCell id="dXCsXWzUOnE5lSZDAf7W-0" value="" style="rounded=0;whiteSpace=wrap;html=1;" parent="WIyWlLk6GJQsqaUBKTNV-1" vertex="1">
          <mxGeometry x="650" y="300" width="680" height="630" as="geometry" />
        </mxCell>
        <mxCell id="dXCsXWzUOnE5lSZDAf7W-1" value="권한/인증&lt;br&gt;정보" style="shape=cylinder3;whiteSpace=wrap;html=1;boundedLbl=1;backgroundOutline=1;size=15;" parent="WIyWlLk6GJQsqaUBKTNV-1" vertex="1">
          <mxGeometry x="-30" y="190" width="80" height="70" as="geometry" />
        </mxCell>
        <mxCell id="dXCsXWzUOnE5lSZDAf7W-2" value="운영자 로그인" style="rounded=0;whiteSpace=wrap;html=1;" parent="WIyWlLk6GJQsqaUBKTNV-1" vertex="1">
          <mxGeometry x="270" y="120" width="110" height="30" as="geometry" />
        </mxCell>
        <mxCell id="dXCsXWzUOnE5lSZDAf7W-3" value="권한/인증 처리" style="rounded=0;whiteSpace=wrap;html=1;" parent="WIyWlLk6GJQsqaUBKTNV-1" vertex="1">
          <mxGeometry x="270" y="180" width="110" height="30" as="geometry" />
        </mxCell>
        <mxCell id="dXCsXWzUOnE5lSZDAf7W-13" value="" style="edgeStyle=orthogonalEdgeStyle;rounded=0;orthogonalLoop=1;jettySize=auto;html=1;entryX=1;entryY=0.5;entryDx=0;entryDy=0;exitX=1;exitY=0.5;exitDx=0;exitDy=0;" parent="WIyWlLk6GJQsqaUBKTNV-1" source="dXCsXWzUOnE5lSZDAf7W-4" target="dXCsXWzUOnE5lSZDAf7W-2" edge="1">
          <mxGeometry relative="1" as="geometry">
            <mxPoint x="420" y="140" as="targetPoint" />
          </mxGeometry>
        </mxCell>
        <mxCell id="dXCsXWzUOnE5lSZDAf7W-4" value="로그인 성공" style="rhombus;whiteSpace=wrap;html=1;" parent="WIyWlLk6GJQsqaUBKTNV-1" vertex="1">
          <mxGeometry x="272.5" y="240" width="105" height="50" as="geometry" />
        </mxCell>
        <mxCell id="dXCsXWzUOnE5lSZDAf7W-7" value="" style="edgeStyle=elbowEdgeStyle;elbow=horizontal;endArrow=classic;html=1;rounded=0;entryX=0;entryY=0.5;entryDx=0;entryDy=0;exitX=1;exitY=0.5;exitDx=0;exitDy=0;exitPerimeter=0;" parent="WIyWlLk6GJQsqaUBKTNV-1" source="dXCsXWzUOnE5lSZDAf7W-1" target="dXCsXWzUOnE5lSZDAf7W-3" edge="1">
          <mxGeometry width="50" height="50" relative="1" as="geometry">
            <mxPoint x="110" y="210" as="sourcePoint" />
            <mxPoint x="160" y="160" as="targetPoint" />
            <Array as="points">
              <mxPoint x="140" y="240" />
            </Array>
          </mxGeometry>
        </mxCell>
        <mxCell id="dXCsXWzUOnE5lSZDAf7W-8" value="인증정보" style="text;html=1;resizable=0;autosize=1;align=center;verticalAlign=middle;points=[];fillColor=none;strokeColor=none;rounded=0;" parent="WIyWlLk6GJQsqaUBKTNV-1" vertex="1">
          <mxGeometry x="50" y="200" width="70" height="30" as="geometry" />
        </mxCell>
        <mxCell id="dXCsXWzUOnE5lSZDAf7W-9" value="" style="endArrow=classic;html=1;rounded=0;exitX=0.5;exitY=1;exitDx=0;exitDy=0;entryX=0.5;entryY=0;entryDx=0;entryDy=0;" parent="WIyWlLk6GJQsqaUBKTNV-1" source="dXCsXWzUOnE5lSZDAf7W-2" target="dXCsXWzUOnE5lSZDAf7W-3" edge="1">
          <mxGeometry width="50" height="50" relative="1" as="geometry">
            <mxPoint x="260" y="230" as="sourcePoint" />
            <mxPoint x="310" y="180" as="targetPoint" />
          </mxGeometry>
        </mxCell>
        <mxCell id="dXCsXWzUOnE5lSZDAf7W-10" value="" style="endArrow=classic;html=1;rounded=0;entryX=0.5;entryY=0;entryDx=0;entryDy=0;exitX=0.5;exitY=1;exitDx=0;exitDy=0;" parent="WIyWlLk6GJQsqaUBKTNV-1" source="dXCsXWzUOnE5lSZDAf7W-3" target="dXCsXWzUOnE5lSZDAf7W-4" edge="1">
          <mxGeometry width="50" height="50" relative="1" as="geometry">
            <mxPoint x="260" y="230" as="sourcePoint" />
            <mxPoint x="310" y="180" as="targetPoint" />
          </mxGeometry>
        </mxCell>
        <mxCell id="dXCsXWzUOnE5lSZDAf7W-11" value="" style="endArrow=classic;html=1;rounded=0;exitX=0.5;exitY=1;exitDx=0;exitDy=0;" parent="WIyWlLk6GJQsqaUBKTNV-1" source="dXCsXWzUOnE5lSZDAf7W-4" edge="1">
          <mxGeometry width="50" height="50" relative="1" as="geometry">
            <mxPoint x="260" y="230" as="sourcePoint" />
            <mxPoint x="325" y="320" as="targetPoint" />
          </mxGeometry>
        </mxCell>
        <mxCell id="dXCsXWzUOnE5lSZDAf7W-14" value="N" style="text;html=1;resizable=0;autosize=1;align=center;verticalAlign=middle;points=[];fillColor=none;strokeColor=none;rounded=0;" parent="WIyWlLk6GJQsqaUBKTNV-1" vertex="1">
          <mxGeometry x="370" y="240" width="30" height="30" as="geometry" />
        </mxCell>
        <mxCell id="dXCsXWzUOnE5lSZDAf7W-16" value="Y" style="text;html=1;align=center;verticalAlign=middle;resizable=0;points=[];autosize=1;strokeColor=none;fillColor=none;" parent="WIyWlLk6GJQsqaUBKTNV-1" vertex="1">
          <mxGeometry x="290" y="286" width="30" height="30" as="geometry" />
        </mxCell>
        <mxCell id="f4TcHpoUOfBV6E7hm2ab-18" value="" style="edgeStyle=orthogonalEdgeStyle;rounded=0;orthogonalLoop=1;jettySize=auto;html=1;endArrow=classic;endFill=1;entryX=1;entryY=0.75;entryDx=0;entryDy=0;" edge="1" parent="WIyWlLk6GJQsqaUBKTNV-1" source="dXCsXWzUOnE5lSZDAf7W-19" target="f4TcHpoUOfBV6E7hm2ab-2">
          <mxGeometry relative="1" as="geometry">
            <mxPoint x="515" y="335" as="targetPoint" />
            <Array as="points">
              <mxPoint x="400" y="335" />
              <mxPoint x="400" y="558" />
            </Array>
          </mxGeometry>
        </mxCell>
        <mxCell id="dXCsXWzUOnE5lSZDAf7W-19" value="IoT 시설물 정보 &lt;br&gt;조회" style="rounded=0;whiteSpace=wrap;html=1;" parent="WIyWlLk6GJQsqaUBKTNV-1" vertex="1">
          <mxGeometry x="270" y="320" width="110" height="30" as="geometry" />
        </mxCell>
        <mxCell id="JHsoXekGntLmaK2EYn77-10" value="" style="edgeStyle=orthogonalEdgeStyle;rounded=0;orthogonalLoop=1;jettySize=auto;html=1;entryX=0;entryY=0.5;entryDx=0;entryDy=0;" parent="WIyWlLk6GJQsqaUBKTNV-1" source="dXCsXWzUOnE5lSZDAf7W-117" target="dXCsXWzUOnE5lSZDAf7W-19" edge="1">
          <mxGeometry relative="1" as="geometry">
            <Array as="points">
              <mxPoint x="10" y="335" />
            </Array>
          </mxGeometry>
        </mxCell>
        <mxCell id="f4TcHpoUOfBV6E7hm2ab-14" value="" style="edgeStyle=orthogonalEdgeStyle;rounded=0;orthogonalLoop=1;jettySize=auto;html=1;endArrow=classic;endFill=1;entryX=0;entryY=0.5;entryDx=0;entryDy=0;" edge="1" parent="WIyWlLk6GJQsqaUBKTNV-1" target="JHsoXekGntLmaK2EYn77-34">
          <mxGeometry relative="1" as="geometry">
            <mxPoint x="10" y="350" as="sourcePoint" />
            <mxPoint x="170" y="395" as="targetPoint" />
            <Array as="points">
              <mxPoint x="160" y="350" />
              <mxPoint x="160" y="415" />
            </Array>
          </mxGeometry>
        </mxCell>
        <mxCell id="dXCsXWzUOnE5lSZDAf7W-117" value="IoT 시설물&lt;br&gt;정보" style="shape=cylinder3;whiteSpace=wrap;html=1;boundedLbl=1;backgroundOutline=1;size=15;" parent="WIyWlLk6GJQsqaUBKTNV-1" vertex="1">
          <mxGeometry x="-30" y="360" width="80" height="70" as="geometry" />
        </mxCell>
        <mxCell id="f4TcHpoUOfBV6E7hm2ab-15" value="" style="edgeStyle=orthogonalEdgeStyle;rounded=0;orthogonalLoop=1;jettySize=auto;html=1;endArrow=classic;endFill=1;entryX=1;entryY=0;entryDx=0;entryDy=25;entryPerimeter=0;" edge="1" parent="WIyWlLk6GJQsqaUBKTNV-1" source="JHsoXekGntLmaK2EYn77-1" target="dXCsXWzUOnE5lSZDAf7W-117">
          <mxGeometry relative="1" as="geometry">
            <Array as="points">
              <mxPoint x="150" y="375" />
              <mxPoint x="150" y="385" />
            </Array>
          </mxGeometry>
        </mxCell>
        <mxCell id="JHsoXekGntLmaK2EYn77-1" value="IoT 시설물 삭제" style="rounded=0;whiteSpace=wrap;html=1;" parent="WIyWlLk6GJQsqaUBKTNV-1" vertex="1">
          <mxGeometry x="270" y="360" width="110" height="30" as="geometry" />
        </mxCell>
        <mxCell id="f4TcHpoUOfBV6E7hm2ab-6" value="" style="edgeStyle=orthogonalEdgeStyle;rounded=0;orthogonalLoop=1;jettySize=auto;html=1;" edge="1" parent="WIyWlLk6GJQsqaUBKTNV-1" source="JHsoXekGntLmaK2EYn77-6" target="f4TcHpoUOfBV6E7hm2ab-2">
          <mxGeometry relative="1" as="geometry" />
        </mxCell>
        <mxCell id="JHsoXekGntLmaK2EYn77-6" value="코드 조회" style="rounded=0;whiteSpace=wrap;html=1;" parent="WIyWlLk6GJQsqaUBKTNV-1" vertex="1">
          <mxGeometry x="100" y="555" width="110" height="30" as="geometry" />
        </mxCell>
        <mxCell id="JHsoXekGntLmaK2EYn77-34" value="IoT 시설물 상세 &lt;br&gt;정보" style="rounded=0;whiteSpace=wrap;html=1;" parent="WIyWlLk6GJQsqaUBKTNV-1" vertex="1">
          <mxGeometry x="270" y="400" width="110" height="30" as="geometry" />
        </mxCell>
        <mxCell id="f4TcHpoUOfBV6E7hm2ab-4" value="" style="edgeStyle=orthogonalEdgeStyle;rounded=0;orthogonalLoop=1;jettySize=auto;html=1;" edge="1" parent="WIyWlLk6GJQsqaUBKTNV-1" source="JHsoXekGntLmaK2EYn77-48" target="JHsoXekGntLmaK2EYn77-6">
          <mxGeometry relative="1" as="geometry" />
        </mxCell>
        <mxCell id="JHsoXekGntLmaK2EYn77-48" value="코드 정보" style="shape=cylinder3;whiteSpace=wrap;html=1;boundedLbl=1;backgroundOutline=1;size=15;" parent="WIyWlLk6GJQsqaUBKTNV-1" vertex="1">
          <mxGeometry x="-30" y="495" width="80" height="70" as="geometry" />
        </mxCell>
        <mxCell id="f4TcHpoUOfBV6E7hm2ab-11" value="" style="edgeStyle=orthogonalEdgeStyle;rounded=0;orthogonalLoop=1;jettySize=auto;html=1;endArrow=none;endFill=0;" edge="1" parent="WIyWlLk6GJQsqaUBKTNV-1">
          <mxGeometry relative="1" as="geometry">
            <mxPoint x="270" y="499" as="sourcePoint" />
            <mxPoint x="150" y="499" as="targetPoint" />
          </mxGeometry>
        </mxCell>
        <mxCell id="f4TcHpoUOfBV6E7hm2ab-1" value="IoT 시설물 등록" style="rounded=0;whiteSpace=wrap;html=1;" vertex="1" parent="WIyWlLk6GJQsqaUBKTNV-1">
          <mxGeometry x="270" y="495" width="110" height="30" as="geometry" />
        </mxCell>
        <mxCell id="f4TcHpoUOfBV6E7hm2ab-7" style="edgeStyle=orthogonalEdgeStyle;rounded=0;orthogonalLoop=1;jettySize=auto;html=1;exitX=0;exitY=0.5;exitDx=0;exitDy=0;entryX=0;entryY=0.5;entryDx=0;entryDy=0;" edge="1" parent="WIyWlLk6GJQsqaUBKTNV-1" source="f4TcHpoUOfBV6E7hm2ab-2" target="f4TcHpoUOfBV6E7hm2ab-1">
          <mxGeometry relative="1" as="geometry" />
        </mxCell>
        <mxCell id="f4TcHpoUOfBV6E7hm2ab-2" value="IoT 시설물 수정" style="rounded=0;whiteSpace=wrap;html=1;" vertex="1" parent="WIyWlLk6GJQsqaUBKTNV-1">
          <mxGeometry x="270" y="535" width="110" height="30" as="geometry" />
        </mxCell>
        <mxCell id="f4TcHpoUOfBV6E7hm2ab-3" value="차량 회사, 평균 속도, 고도, 좌표, 와이퍼, 기어" style="text;html=1;resizable=0;autosize=1;align=center;verticalAlign=middle;points=[];fillColor=none;strokeColor=none;rounded=0;" vertex="1" parent="WIyWlLk6GJQsqaUBKTNV-1">
          <mxGeometry x="-20" y="310" width="270" height="30" as="geometry" />
        </mxCell>
        <mxCell id="f4TcHpoUOfBV6E7hm2ab-9" value="" style="endArrow=classic;html=1;rounded=0;exitX=0;exitY=0.25;exitDx=0;exitDy=0;entryX=1;entryY=0;entryDx=0;entryDy=45;entryPerimeter=0;" edge="1" parent="WIyWlLk6GJQsqaUBKTNV-1" source="f4TcHpoUOfBV6E7hm2ab-2" target="dXCsXWzUOnE5lSZDAf7W-117">
          <mxGeometry width="50" height="50" relative="1" as="geometry">
            <mxPoint x="140" y="420" as="sourcePoint" />
            <mxPoint x="190" y="370" as="targetPoint" />
            <Array as="points">
              <mxPoint x="150" y="543" />
              <mxPoint x="150" y="405" />
            </Array>
          </mxGeometry>
        </mxCell>
        <mxCell id="f4TcHpoUOfBV6E7hm2ab-19" value="" style="endArrow=classic;html=1;rounded=0;entryX=1;entryY=0.5;entryDx=0;entryDy=0;" edge="1" parent="WIyWlLk6GJQsqaUBKTNV-1" target="f4TcHpoUOfBV6E7hm2ab-1">
          <mxGeometry width="50" height="50" relative="1" as="geometry">
            <mxPoint x="400" y="510" as="sourcePoint" />
            <mxPoint x="240" y="370" as="targetPoint" />
          </mxGeometry>
        </mxCell>
        <mxCell id="f4TcHpoUOfBV6E7hm2ab-20" value="" style="endArrow=classic;html=1;rounded=0;entryX=1;entryY=0.5;entryDx=0;entryDy=0;" edge="1" parent="WIyWlLk6GJQsqaUBKTNV-1">
          <mxGeometry width="50" height="50" relative="1" as="geometry">
            <mxPoint x="400" y="376" as="sourcePoint" />
            <mxPoint x="380" y="376" as="targetPoint" />
          </mxGeometry>
        </mxCell>
        <mxCell id="f4TcHpoUOfBV6E7hm2ab-21" value="" style="endArrow=classic;html=1;rounded=0;entryX=1;entryY=0.5;entryDx=0;entryDy=0;" edge="1" parent="WIyWlLk6GJQsqaUBKTNV-1">
          <mxGeometry width="50" height="50" relative="1" as="geometry">
            <mxPoint x="400" y="415" as="sourcePoint" />
            <mxPoint x="380" y="415" as="targetPoint" />
          </mxGeometry>
        </mxCell>
      </root>
    </mxGraphModel>
  </diagram>
</mxfile>
